# xmcd CD database file
#
# Track frame offsets:
#	183
#	20285
#	22995
#	39538
#	62320
#	64795
#	84820
#	101488
#	113535
#	132365
#	138138
#	152253
#	174585
#	197580
#	201323
#	223660
#	230490
#
# Disc length: 3257 seconds
#
# Revision: 4
# Processed by: cddbd v1.5.2PL0 Copyright (c) Steve Scherf et al.
# Submitted via: CDex 1.51
#
DISCID=d10cb711
DTITLE=Paul Personne - Comme A La Maison
DYEAR=1992
DGENRE=Blues
TTITLE0=Salut !
TTITLE1=Boom Boom
TTITLE2=Le Rôle... On L'a Déja !
TTITLE3=Général Lee
TTITLE4=Fantômes
TTITLE5=Nuits Blanches... Etoilées
TTITLE6=Vagabondages
TTITLE7=Quelqu'un M'appelle
TTITLE8=Lavomatics
TTITLE9=P'tit Blues
TTITLE10=En Cabane Sur Les Branches - Coucou
TTITLE11=Serenity-Street
TTITLE12=Picnic Existentiel Au Bord D'un Lit
TTITLE13=Coy-Boy
TTITLE14=Le Bourdon
TTITLE15=Repaire
TTITLE16=Mélancolie
EXTD=YEAR: 1992
EXTT0=
EXTT1=
EXTT2=
EXTT3=
EXTT4=
EXTT5=
EXTT6=
EXTT7=
EXTT8=
EXTT9=
EXTT10=
EXTT11=
EXTT12=
EXTT13=
EXTT14=
EXTT15=
EXTT16=
PLAYORDER=
